<?xml version="1.0" encoding="utf-8"?>
<!-- Generator: Adobe Illustrator 18.1.1, SVG Export Plug-In . SVG Version: 6.00 Build 0)  -->
<!DOCTYPE svg PUBLIC "-//W3C//DTD SVG 1.1//EN" "http://www.w3.org/Graphics/SVG/1.1/DTD/svg11.dtd">
<svg version="1.1" id="Layer_1" xmlns="http://www.w3.org/2000/svg" xmlns:xlink="http://www.w3.org/1999/xlink" x="0px" y="0px"
	 viewBox="0 0 953 172.1" enable-background="new 0 0 953 172.1" xml:space="preserve">
<path d="M28.2,84.5c0,6.6,0.4,7.2,6.1,7.3v1.8h-18v-1.8c5-0.1,5.5-0.7,5.5-7.3V50.6c-0.1-4.6-0.1-4.7-0.4-5.3
	c-0.5-1.5-1.8-2.1-5.1-2.1v-1.7h36.6l0.9,12.8l-2.3,0.1c-1.7-8.8-4.2-10.8-13.9-10.8h-9.4v22.2h7.7c7.9,0,9.3-1,10.1-7.3h2v16.8h-2
	c-1-6.5-2.2-7.4-10.1-7.4h-7.7V84.5z"/>
<path d="M268.2,81.4c0,5.8,0.2,7.3,1,8.5c0.9,1.3,2.4,1.9,5.3,1.9v1.8h-15.8v-1.8c2.7,0,4.2-0.6,5.2-1.9c1-1.4,1.4-4.2,1.4-9.7v-29
	c0-7.1-0.5-7.8-5.9-8v-1.7h12.7l30,43.1V54.9c0-6.5-0.2-8.6-1.1-9.7c-0.9-1.3-2.5-1.9-5.5-2v-1.7h16.1v1.7
	c-5.4,0.3-6.6,2.2-6.6,10.7v40H301l-32.8-47.2V81.4z"/>
<path d="M413.5,84.5c0,4.2,0.3,5.6,1.3,6.4c0.7,0.6,2.6,0.9,5.5,0.9v1.8h-20.2v-1.8c3.1,0,4.8-0.4,5.5-1.1c0.9-0.8,1.2-2.2,1.2-6.3
	V43.2c-12.9,0.1-15,1.8-16.8,13.5l-2.3-0.1l1.3-15.1h42.3l1.3,15.1l-2.3,0.1c-1.9-11.7-3.9-13.4-16.8-13.5V84.5z"/>
<path d="M521.5,82.1c-0.9,2.3-1.4,4.5-1.4,5.9c0,2.6,1.9,3.7,6,3.9v1.8h-16.8v-1.8c4.1,0,6.5-2.5,9.2-9.8l15.3-40.6l4.5-0.5
	l15.3,43.5c2,5.9,3.4,7.3,7.6,7.4v1.8h-18.6v-1.8c3.7-0.1,5.2-1,5.2-3.1c0-0.9-0.3-2.3-0.9-4.1l-3-9.1h-20.1L521.5,82.1z
	 M534.1,47.7l-9.4,25.2h18.1L534.1,47.7z"/>
<path d="M644.3,79.3h2.4c0.3,4.5,1,6.8,3,9.1c2.3,2.7,6,4.1,10.8,4.1c6.6,0,10.4-3.5,10.4-9.4c0-5.7-2.7-8.4-13.4-13.6
	c-6.1-3-8.4-4.3-10.4-6.5c-2.1-2.2-3.2-5-3.2-8.5c0-4.2,1.6-7.8,4.5-10.4c2.7-2.4,6-3.5,10.3-3.5c2.7,0,4,0.1,8.5,1.2
	c1.1,0.2,1.9,0.4,2.7,0.4c1.1,0,2.4-0.4,4.3-1.1l-0.4,14.2h-2.4c-0.3-3.5-0.9-5.6-2-7.6c-2-3.3-5.7-5.1-10.4-5.1c-3.5,0-5.9,1-7.6,3
	c-1.3,1.7-2.1,3.9-2.1,6.3c0,4.8,2.3,7.1,10.9,11.2c9,4.2,12.4,6.6,14.4,9.8c1.4,2.2,2,4.6,2,7.9c0,4.2-1.4,7.5-4.1,9.8
	c-3,2.7-7,4-11.7,4c-2.8,0-4.6-0.2-9.6-1.2c-0.9-0.1-1.7-0.2-2.4-0.2c-1.2,0-2.4,0.2-5,0.7L644.3,79.3z"/>
<path d="M763.6,80.1c0,6.6,0.2,8.6,1.1,9.8c0.9,1.3,2.4,1.9,5.3,1.9v1.8h-15.6v-1.8c2.5-0.1,4-0.6,4.9-1.9c1.1-1.4,1.4-4.2,1.4-9.8
	V50.6c0-3.7-0.3-5.3-1.1-6.3c-0.8-0.8-1.5-1-4.3-1.2v-1.7h13.8L786,84.1l16.8-42.6h13.4v1.7c-5.2,0.3-5.5,0.7-5.5,7.4v33.9
	c0,6.6,0.4,7.2,5.5,7.3v1.8h-17.5v-1.8c5-0.1,5.5-0.8,5.5-7.3V45.1L785.5,93h-3.1l-18.9-47.8V80.1z"/>
<path d="M896.6,82.1c-0.9,2.3-1.4,4.5-1.4,5.9c0,2.6,1.9,3.7,6,3.9v1.8h-16.8v-1.8c4.1,0,6.5-2.5,9.2-9.8L909,41.5l4.5-0.5
	l15.3,43.5c2,5.9,3.4,7.3,7.6,7.4v1.8h-18.6v-1.8c3.7-0.1,5.2-1,5.2-3.1c0-0.9-0.3-2.3-0.9-4.1l-3-9.1h-20.1L896.6,82.1z
	 M909.3,47.7l-9.4,25.2H918L909.3,47.7z"/>
<g>
	<g>
		<polygon fill="#ED1C24" points="132.4,101.9 190.2,14.6 190.2,161 172.7,68.7 		"/>
	</g>
	<g>
		<path fill="#ED1C24" d="M189.5,161.1l-17.3-91.2l-42.8,35.4l61.5-92.9V161L189.5,161.1z M173.1,67.4l16.4,86.4v-137l-54,81.6
			L173.1,67.4z"/>
	</g>
</g>
</svg>
